# xmcd CD database file
#
# Track frame offsets:
#	150
#	15916
#	32987
#	52500
#	70647
#	83576
#	99292
#	115773
#	136394
#	150893
#	167204
#
# Disc length: 2417 seconds
#
# Revision: 0
# Processed by: cddbd v1.5.2PL0 Copyright (c) Steve Scherf et al.
# Submitted via: CDex 1.51
#
DISCID=6e096f0b
DTITLE=Heath, Rob - One More Day Above Ground
DYEAR=2008
DGENRE=Country
TTITLE0=Mystery of You
TTITLE1=One More Day Above Ground
TTITLE2=Watching
TTITLE3=Yours Truely...
TTITLE4=Brightest Stars
TTITLE5=Why Not Stand Out
TTITLE6=Flying Machine
TTITLE7=Starlight Tours
TTITLE8=To Come Back From His War
TTITLE9=Way She Looked at Me, The
TTITLE10=What if They're Right
EXTD=YEAR: 2008
EXTT0=
EXTT1=
EXTT2=
EXTT3=
EXTT4=
EXTT5=
EXTT6=
EXTT7=
EXTT8=
EXTT9=
EXTT10=
PLAYORDER=
